HIERARCHY
ROOT root
{
	OFFSET	0	13.1	24.9
	CHANNELS 6  Xposition Yposition Zposition Xrotation Yrotation Zrotation
	JOINT spine_1
	{
		OFFSET	0	9.99999	0
		CHANNELS 3  Xrotation Yrotation Zrotation
		JOINT spine_2
		{
			OFFSET	0	112	-10
			CHANNELS 3  Xrotation Yrotation Zrotation
			JOINT spine_3
			{
				OFFSET	0	206.5	19.3
				CHANNELS 3  Xrotation Yrotation Zrotation
				JOINT spine_4
				{
					OFFSET	0	110.4	14.6
					CHANNELS 3  Xrotation Yrotation Zrotation
					JOINT neck_1
					{
						OFFSET	0	71.8	-50.3
						CHANNELS 3  Xrotation Yrotation Zrotation
						JOINT neck_2
						{
							OFFSET	0	86.2	-25.8
							CHANNELS 3  Xrotation Yrotation Zrotation
							JOINT head_ee
							{
								OFFSET	0	179.8	-8.7
								CHANNELS 3  Xrotation Yrotation Zrotation
								End Site
								{
									OFFSET	1	0	0
								}
							}
						}
					}
					JOINT left_clavicle
					{
						OFFSET	-43.2	22.4	-70.8
						CHANNELS 3  Xrotation Yrotation Zrotation
						JOINT left_shoulder
						{
							OFFSET	-93.9	-5.79999	48.7
							CHANNELS 3  Xrotation Yrotation Zrotation
							JOINT left_elbow
							{
								OFFSET	-291.4	-30.8	15.2
								CHANNELS 3  Xrotation Yrotation Zrotation
								JOINT left_lowarm_twist
								{
									OFFSET	-110.7	-3.89999	13.6
									CHANNELS 3  Xrotation Yrotation Zrotation
									JOINT left_hand
									{
										OFFSET	-110.7	-3.89999	13.6
										CHANNELS 3  Xrotation Yrotation Zrotation
										JOINT left_ee
										{
											OFFSET	-80.8	-5.10001	12.1
											CHANNELS 3  Xrotation Yrotation Zrotation
											End Site
											{
												OFFSET	1	0	0
											}
										}
									}
								}
							}
						}
					}
					JOINT right_clavicle
					{
						OFFSET	43.2	22.4	-70.8
						CHANNELS 3  Xrotation Yrotation Zrotation
						JOINT right_shoulder
						{
							OFFSET	93.9	-5.79999	48.7
							CHANNELS 3  Xrotation Yrotation Zrotation
							JOINT right_elbow
							{
								OFFSET	291.4	-30.8	15.2
								CHANNELS 3  Xrotation Yrotation Zrotation
								JOINT right_lowarm_twist
								{
									OFFSET	110.7	-3.89999	13.6
									CHANNELS 3  Xrotation Yrotation Zrotation
									JOINT right_hand
									{
										OFFSET	110.7	-3.89999	13.6
										CHANNELS 3  Xrotation Yrotation Zrotation
										JOINT right_ee
										{
											OFFSET	80.8	-5.10001	12.1
											CHANNELS 3  Xrotation Yrotation Zrotation
											End Site
											{
												OFFSET	1	0	0
											}
										}
									}
								}
							}
						}
					}
				}
			}
		}
	}
	JOINT left_hip
	{
		OFFSET	-82.8	-127.5	0.300001
		CHANNELS 3  Xrotation Yrotation Zrotation
		JOINT left_knee
		{
			OFFSET	-28.2	-396.7	2.2
			CHANNELS 3  Xrotation Yrotation Zrotation
			JOINT left_ankle
			{
				OFFSET	-11.7	-411.3	35.4
				CHANNELS 3  Xrotation Yrotation Zrotation
				JOINT left_toes
				{
					OFFSET	0	-60	-88.6
					CHANNELS 3  Xrotation Yrotation Zrotation
					JOINT left_foot_ee
					{
						OFFSET	-22.5	-16.5	-42.2
						CHANNELS 3  Xrotation Yrotation Zrotation
						End Site
						{
							OFFSET	1	0	0
						}
					}
				}
			}
		}
	}
	JOINT right_hip
	{
		OFFSET	82.8	-127.5	0.300001
		CHANNELS 3  Xrotation Yrotation Zrotation
		JOINT right_knee
		{
			OFFSET	28.2	-396.7	2.2
			CHANNELS 3  Xrotation Yrotation Zrotation
			JOINT right_ankle
			{
				OFFSET	11.7	-411.3	35.4
				CHANNELS 3  Xrotation Yrotation Zrotation
				JOINT right_toes
				{
					OFFSET	0	-60	-88.6
					CHANNELS 3  Xrotation Yrotation Zrotation
					JOINT right_foot_ee
					{
						OFFSET	22.5	-16.5	-42.2
						CHANNELS 3  Xrotation Yrotation Zrotation
						End Site
						{
							OFFSET	1	0	0
						}
					}
				}
			}
		}
	}
}
MOTION
Frames: 10
Frame Time: 0.02
3177.02 653.055 -1669.29 164.301101946 71.6497623019 -153.945841074 -3.54953 -0.271505 -1.79363 -3.54775 -0.156841 -1.80727 -3.54017 0.337296 -1.78243 -3.5446 0.0516089 -1.81332 -15.175 3.78079 -0.563051 -15.2246 7.56608 0.734341 -0.0 0.0 -0.0 5.64461 23.5293 10.5153 -40.2087 -35.2815 58.7231 0.438643 -12.2595 0.0471079 -67.9388 -6.28329 5.279 1.95168 -3.25977 11.8297 -0.0 0.0 -0.0 12.0434 20.3153 -24.0108 12.3884 18.6043 -43.0607 2.44533 50.4516 -1.15217 -3.0335 0.116711 -0.369711 0.522173 7.11336 -0.506509 0.0 0.0 0.0 29.1596 1.15871 -12.553 -0.647637 0.026125 0.0959533 11.271 10.7148 -1.59696 -23.3449 0.0 0.0 -0.0 0.0 -0.0 -24.3774 12.9661 -19.1302 -8.92639 -0.26333 -1.34324 17.1144 -18.2372 2.40993 12.4907 -0.0 -0.0 0.0 0.0 0.0 
3105.46788528 661.824 -1648.30318022 162.577004756 74.1513430328 -151.681153226 -3.81687 -0.280743 -1.85924 -3.81496 -0.161887 -1.87333 -3.80671 0.358886 -1.84575 -3.81146 0.0629337 -1.87926 -19.0071 5.87415 1.93255 -19.1351 10.3 4.16083 -0.0 0.0 -0.0 6.28347 23.4856 11.4215 -38.2068 -35.1407 56.6446 0.478833 -13.3441 0.0560135 -63.237 -5.68785 5.1905 2.27778 -2.66835 14.3251 -0.0 0.0 -0.0 10.5099 20.6185 -20.5022 8.12077 18.7303 -46.8809 3.16794 57.4812 -1.73763 -3.65882 0.143197 -0.445136 0.754038 4.57176 -3.14457 0.0 0.0 0.0 29.6437 1.64259 -13.0771 -10.203 0.283771 1.53806 -3.28066 13.1774 0.485176 -24.4854 0.0 0.0 -0.0 0.0 -0.0 -28.5477 13.9228 -17.2386 -9.25877 -0.26907 -1.39392 23.5145 -15.5121 3.19339 11.2597 -0.0 -0.0 0.0 0.0 0.0 
3087.73022938 664.22 -1642.30260272 163.836301372 75.3470490087 -153.059609693 -3.73408 -0.121077 -1.9783 -3.7319 0.00502767 -1.98199 -3.72915 0.546754 -1.90512 -3.73413 0.239075 -1.96753 -17.8529 6.52537 2.25654 -17.9893 11.3212 4.60172 -0.0 0.0 -0.0 6.4109 23.5267 11.5992 -37.838 -35.2652 55.869 0.506759 -14.0921 0.0626362 -62.3804 -5.58018 5.1691 2.16705 -0.932181 14.265 -0.0 0.0 -0.0 10.1586 21.437 -19.6483 6.90445 18.5906 -46.7679 3.1413 57.2617 -1.71519 -3.70735 0.145287 -0.450978 0.662496 2.91381 -3.22145 0.0 0.0 0.0 29.2229 1.64734 -13.2965 -12.079 0.30592 1.82503 1.31262 9.40134 -0.191507 -25.7555 0.0 0.0 -0.0 0.0 -0.0 -28.4857 13.8968 -16.7622 -9.19099 -0.267924 -1.38358 15.0913 -18.5016 2.14372 11.6523 -0.0 -0.0 0.0 0.0 0.0 
3071.29556886 674.499 -1631.67387409 164.213310965 76.1519673218 -153.456875829 -3.82327 -0.176158 -2.05584 -3.82092 -0.0450104 -2.06288 -3.81597 0.523754 -1.99582 -3.82147 0.202049 -2.05346 -17.0025 6.41075 4.12168 -17.0604 10.0085 6.2034 -0.0 0.0 -0.0 7.51555 24.4343 13.0756 -37.7427 -34.7884 54.3974 0.510238 -14.185 0.0634862 -61.2722 -5.44137 5.13902 1.43874 5.56411 11.8408 -0.0 0.0 -0.0 9.90717 21.6242 -19.0695 5.74944 17.0149 -47.3523 3.17361 57.5275 -1.7424 -4.02315 0.159008 -0.488948 0.549692 5.40974 -1.4135 0.0 0.0 0.0 29.0121 1.5402 -13.1999 -15.3542 0.322034 2.32722 4.63414 3.9356 -0.671835 -28.8733 0.0 0.0 -0.0 0.0 -0.0 -28.4621 14.091 -16.1 -7.92814 -0.244325 -1.19123 6.48893 -21.7153 0.959923 13.2365 -0.0 -0.0 0.0 0.0 0.0 
3009.25269301 689.893 -1613.64698151 153.126809983 79.017445127 -142.363169578 -4.31661 -0.213126 -2.08756 -4.31419 -0.0798867 -2.09689 -4.30747 0.517027 -2.03374 -4.31319 0.18942 -2.08984 -15.7309 8.01755 4.96327 -15.8056 12.4819 7.43071 -0.0 0.0 -0.0 9.05288 24.8233 15.2089 -36.349 -33.6581 51.5188 0.589026 -16.2667 0.0841813 -59.781 -5.25553 5.09431 1.02999 10.8542 11.1243 -0.0 0.0 -0.0 8.97824 23.2372 -16.8587 3.80254 14.8592 -51.2186 2.95436 55.6444 -1.55937 -5.86613 0.24325 -0.709005 0.876464 4.41832 -4.03516 0.0 0.0 0.0 23.272 -0.25287 -13.3124 -19.2774 0.303536 2.92877 20.232 -13.3359 -2.94405 -38.9292 0.0 0.0 -0.0 0.0 -0.0 -32.2264 15.5364 -13.7557 -6.20851 -0.205381 -0.930223 -14.3267 -24.9546 -2.23536 27.3104 -0.0 -0.0 0.0 0.0 0.0 
2973.58562259 696.078 -1614.75670873 144.83899023 80.7940910524 -133.872104707 -4.35074 -0.348791 -2.1581 -4.34817 -0.210792 -2.17591 -4.33577 0.414842 -2.14639 -4.34219 0.070738 -2.18495 -15.6208 8.82028 8.10253 -15.5669 12.1793 10.6197 -0.0 0.0 -0.0 9.55831 24.1614 16.056 -34.7493 -33.5469 49.7867 0.620577 -17.0884 0.093236 -58.0517 -5.04149 5.0364 1.02921 15.7716 12.8903 -0.0 0.0 -0.0 8.64168 23.5817 -16.0807 3.15758 14.2572 -53.8383 2.43106 50.2869 -1.14117 -5.82665 0.241371 -0.704319 0.695459 6.43271 -1.96479 0.0 0.0 0.0 21.5749 -0.741316 -13.7799 -21.9527 0.267329 3.33764 22.193 -21.2785 -3.40084 -37.7284 0.0 0.0 -0.0 0.0 -0.0 -31.4563 14.9552 -13.8277 -9.4879 -0.272856 -1.42887 -23.4501 -26.7655 -3.71128 26.4331 -0.0 -0.0 0.0 0.0 0.0 
2957.90960893 699.05 -1616.42210153 136.078700522 82.2529427301 -124.755587181 -4.21039 -0.426535 -2.24005 -4.20764 -0.283168 -2.26263 -4.19167 0.364328 -2.25099 -4.19874 0.00434931 -2.28027 -15.9496 8.94191 6.28521 -16.0105 13.5201 9.01518 -0.0 0.0 -0.0 9.9984 23.52 16.8266 -34.1773 -32.9001 48.9627 0.595229 -16.4288 0.0859271 -56.7515 -4.88174 4.98861 1.14992 17.2877 14.1752 -0.0 0.0 -0.0 8.57479 23.9309 -15.8999 1.65363 14.9261 -54.4762 2.20699 47.5452 -0.972237 -8.1609 0.357986 -0.979091 0.798332 6.61188 -2.58368 0.0 0.0 0.0 19.3784 -0.592199 -14.1442 -21.5457 0.274069 3.27555 25.4861 -20.6906 -3.80886 -36.4599 0.0 0.0 -0.0 0.0 -0.0 -30.0929 14.4359 -13.5847 -12.4977 -0.309581 -1.88918 -23.6725 -28.7108 -3.79085 25.4069 -0.0 -0.0 0.0 0.0 0.0 
2957.54390144 699.05 -1617.96144726 133.949030638 82.5374528646 -122.607030496 -4.21039 -0.426535 -2.24005 -4.20764 -0.283168 -2.26263 -4.19167 0.364328 -2.25099 -4.19874 0.00434931 -2.28027 -15.9496 8.94191 6.28521 -16.0105 13.5201 9.01518 -0.0 0.0 -0.0 9.9984 23.52 16.8266 -34.1773 -32.9001 48.9627 0.595229 -16.4288 0.0859271 -56.7515 -4.88174 4.98861 1.14992 17.2877 14.1752 -0.0 0.0 -0.0 8.57479 23.9309 -15.8999 1.65363 14.9261 -54.4762 2.20699 47.5452 -0.972237 -8.1609 0.357986 -0.979091 0.798332 6.61188 -2.58368 0.0 0.0 0.0 19.3784 -0.592199 -14.1442 -21.5457 0.274069 3.27555 25.4861 -20.6906 -3.80886 -36.4599 0.0 0.0 -0.0 0.0 -0.0 -30.0929 14.4359 -13.5847 -12.4977 -0.309581 -1.88918 -23.6725 -28.7108 -3.79085 25.4069 -0.0 -0.0 0.0 0.0 0.0 
2923.99555351 712.38 -1625.69792166 107.644163968 84.12053948 -95.7175289936 -4.02892 -0.687856 -2.30341 -4.02613 -0.539932 -2.34248 -3.99862 0.132074 -2.40024 -4.00657 -0.248546 -2.39099 -17.1488 9.14301 6.45152 -17.2411 13.9829 9.40526 -0.0 0.0 -0.0 10.3834 21.729 17.7563 -32.3378 -33.2954 47.2203 0.624843 -17.1989 0.0944936 -54.7841 -4.64213 4.90943 1.23659 18.1994 15.0254 -0.0 0.0 -0.0 8.35468 20.3201 -15.7244 -1.29107 17.8158 -56.2351 1.90542 43.3422 -0.757205 -8.94256 0.399532 -1.07003 1.07875 10.5999 -2.77592 0.0 0.0 0.0 15.8907 -0.0707717 -14.9146 -18.7768 0.308189 2.8521 23.7713 -27.8865 -3.87066 -34.0576 0.0 0.0 -0.0 0.0 -0.0 -26.6158 13.8232 -13.5149 -18.9561 -0.306599 -2.87957 -24.8698 -29.2254 -3.99607 23.0398 -0.0 -0.0 0.0 0.0 0.0 
2905.53653294 711.41 -1627.47175158 79.320917537 83.8964601465 -67.1074417513 -3.83335 -0.581076 -2.32482 -3.83045 -0.432007 -2.35705 -3.80753 0.231936 -2.38505 -3.81544 -0.147538 -2.39175 -15.6256 9.29981 4.52506 -15.7822 15.1847 7.46308 -0.0 0.0 -0.0 10.1154 20.2664 17.5977 -31.6481 -33.7066 47.4696 0.693501 -18.9597 0.115803 -53.1269 -4.44247 4.83636 1.68822 17.6651 17.7236 -0.0 0.0 -0.0 8.06878 17.9601 -15.2675 -2.73974 17.7143 -57.2779 1.91792 43.529 -0.765793 -11.113 0.521373 -1.3195 1.43334 10.6436 -5.15496 0.0 0.0 0.0 13.8951 -0.350253 -15.4544 -19.4162 0.302128 2.95001 27.0835 -25.9767 -4.22299 -32.7135 0.0 0.0 -0.0 0.0 -0.0 -23.8264 13.8271 -13.563 -26.3229 -0.167253 -4.00066 -22.8529 -29.0233 -3.66657 22.9164 -0.0 -0.0 0.0 0.0 0.0 
